<?xml version="1.0" encoding="UTF-8"?>
<svg id="Calque_2" data-name="Calque 2" xmlns="http://www.w3.org/2000/svg" viewBox="0 0 1351.09 286.81">
  <g id="Calque_1-2" data-name="Calque 1">
    <g>
      <path d="m0,235.68V19.34h53.1v216.34H0Zm9.18,0v-45.23h126.2v45.23H9.18Z"/>
      <path d="m195.68,240.26c-8.74,0-17.04-1.53-24.91-4.59-7.87-3.06-14.31-8.03-19.34-14.91-5.03-6.88-7.54-16.11-7.54-27.7,0-10.7,2.07-19.39,6.23-26.06,4.15-6.66,9.72-12.02,16.72-16.06,6.99-4.04,14.64-7.1,22.94-9.18,8.3-2.07,16.5-3.88,24.58-5.41,11.36-2.18,19.88-3.93,25.57-5.24,5.68-1.31,9.56-2.84,11.64-4.59,2.07-1.75,3.11-4.15,3.11-7.21,0-6.33-2.35-11.14-7.05-14.42-4.7-3.28-10.87-4.92-18.52-4.92-4.81,0-9.62.88-14.42,2.62-4.81,1.75-8.74,4.87-11.8,9.34-3.06,4.48-4.48,10.87-4.26,19.18l-47.2-3.28c-.44-13.77,1.64-25.18,6.23-34.25,4.59-9.07,10.87-16.17,18.85-21.31,7.97-5.13,16.72-8.79,26.22-10.98,9.51-2.18,18.96-3.28,28.35-3.28,17.26,0,31.47,3.23,42.61,9.67,11.14,6.45,19.39,15.73,24.75,27.86,5.35,12.13,8.03,26.83,8.03,44.09v96.04h-45.89v-49.5h-1.97c-.88,9.83-4.1,18.85-9.67,27.04-5.57,8.19-12.9,14.75-21.96,19.67-9.07,4.92-19.5,7.38-31.3,7.38Zm21.96-38.68c3.71,0,7.7-.71,11.96-2.13,4.26-1.42,8.3-3.77,12.13-7.05,3.82-3.28,6.93-7.81,9.34-13.6,2.4-5.79,3.61-12.95,3.61-21.47v-7.87l8.85-.98c-1.75,2.84-4.65,5.14-8.69,6.88-4.05,1.75-8.58,3.11-13.6,4.1-5.03.98-10.11,1.97-15.24,2.95-5.14.98-9.89,2.29-14.26,3.93-4.37,1.64-7.92,3.83-10.65,6.56s-4.1,6.5-4.1,11.31c0,5.69,2.02,10,6.06,12.95,4.04,2.95,8.9,4.42,14.59,4.42Z"/>
      <path d="m322.86,235.68v-44.58l82.27-83.91v-1.97h-80.63v-42.61h142.59v44.91l-82.27,84.24v1.31h83.26v42.61h-145.21Z"/>
      <path d="m548.37,286.81c-6.56,0-13.77-.55-21.63-1.64-7.87-1.1-15.73-2.84-23.6-5.24-7.87-2.41-15.19-5.46-21.96-9.18l12.13-53.43c7.87,7.43,16.66,12.68,26.39,15.73,9.72,3.06,18.41,4.59,26.06,4.59,10.7,0,19.72-2.13,27.04-6.39,7.32-4.26,12.83-10.49,16.55-18.68,3.71-8.19,5.57-18.19,5.57-29.99v-30.16h-2.95c-.44,15.3-2.9,27.81-7.38,37.53-4.48,9.73-10.55,16.88-18.19,21.47-7.65,4.59-16.5,6.88-26.55,6.88-12.46,0-22.78-3.17-30.98-9.51-8.19-6.34-14.37-15.84-18.52-28.52-4.15-12.67-6.23-28.52-6.23-47.53V62.61h52.77v56.38c0,18.58,1.97,32.12,5.9,40.65,3.93,8.52,10.16,12.78,18.68,12.78,4.37,0,8.25-1.15,11.64-3.44,3.39-2.29,6.17-5.79,8.36-10.49,2.18-4.7,3.82-10.6,4.92-17.7,1.09-7.1,1.64-15.35,1.64-24.75v-53.43h52.77v121.94c0,11.8-1.2,22.89-3.61,33.27-2.41,10.38-6.01,19.77-10.82,28.19-4.81,8.41-10.87,15.68-18.19,21.8-7.32,6.12-15.95,10.82-25.9,14.09-9.95,3.28-21.25,4.92-33.93,4.92Z"/>
      <path d="m730.94,235.68V19.34h53.1v92.43c10.49-3.49,19.72-8.47,27.7-14.91,7.97-6.44,14.8-13.82,20.49-22.13,5.68-8.3,10.38-17.21,14.09-26.71,3.71-9.51,6.56-19.06,8.52-28.68h59.66c-2.62,12.46-6.39,24.2-11.31,35.24-4.92,11.04-11.09,21.14-18.52,30.32-7.43,9.18-16.06,17.32-25.89,24.42-9.83,7.1-20.98,12.95-33.43,17.54v2.62c13.33-1.09,24.36-.27,33.11,2.46,8.74,2.74,15.84,6.72,21.31,11.96,5.46,5.24,9.78,11.2,12.95,17.86,3.17,6.67,5.84,13.39,8.03,20.16l17.37,53.76h-59l-12.46-48.18c-1.97-7.87-4.75-14.26-8.36-19.18-3.61-4.92-8.25-8.47-13.93-10.65-5.69-2.18-12.9-3.28-21.63-3.28h-18.68v81.29h-53.1Z"/>
      <path d="m960.05,50.15c-10.05,0-17.76-2.13-23.11-6.39-5.36-4.26-8.03-10.43-8.03-18.52s2.67-14.59,8.03-18.85c5.35-4.26,13.05-6.39,23.11-6.39s18.08,2.19,23.44,6.56c5.35,4.37,8.03,10.6,8.03,18.68s-2.68,13.99-8.03,18.36c-5.36,4.37-13.17,6.56-23.44,6.56Zm-26.22,185.52V62.61h53.1v173.07h-53.1Z"/>
      <path d="m1010.53,284.19V62.61h46.54v53.43h2.29c2.4-12.89,6.01-23.65,10.82-32.29,4.8-8.63,10.98-15.08,18.52-19.34,7.54-4.26,16.66-6.39,27.37-6.39,13.55,0,25.08,3.44,34.58,10.33,9.51,6.88,16.72,17.04,21.63,30.48,4.92,13.44,7.38,29.99,7.38,49.66,0,21.2-2.79,38.57-8.36,52.12-5.57,13.55-13.17,23.55-22.78,29.99-9.62,6.44-20.54,9.67-32.78,9.67-9.83,0-18.52-2.08-26.06-6.23-7.54-4.15-13.77-10.54-18.68-19.18-4.92-8.63-8.36-19.5-10.33-32.61h-2.95c1.09,6.34,2.07,12.95,2.95,19.83.87,6.88,1.58,13.66,2.13,20.32.54,6.67.82,13.06.82,19.18v42.61h-53.1Zm85.22-87.52c6.99,0,12.73-2.18,17.21-6.56,4.48-4.37,7.75-10.1,9.83-17.21,2.07-7.1,3.11-14.59,3.11-22.45,0-8.74-1.15-16.66-3.44-23.76-2.29-7.1-5.68-12.78-10.16-17.04-4.48-4.26-10-6.39-16.55-6.39-4.15,0-8.19.93-12.13,2.79-3.93,1.86-7.43,4.7-10.49,8.52-3.06,3.83-5.52,8.69-7.38,14.59-1.86,5.9-2.79,13-2.79,21.31v1.97c0,6.56.66,12.24,1.97,17.04,1.31,4.81,3.06,8.96,5.24,12.46,2.18,3.5,4.7,6.34,7.54,8.52,2.84,2.19,5.79,3.77,8.85,4.75,3.06.98,6.12,1.48,9.18,1.48Z"/>
      <path d="m1274.39,240.26c-11.58,0-22.35-1.15-32.29-3.44-9.95-2.29-18.58-5.95-25.89-10.98-7.32-5.02-12.9-11.74-16.72-20.16-3.83-8.41-5.41-18.63-4.75-30.65l46.22-3.93c.44,7.21,2.07,13.17,4.92,17.86,2.84,4.7,6.77,8.14,11.8,10.33,5.02,2.19,11.14,3.28,18.36,3.28,6.77,0,12.62-1.15,17.54-3.44,4.92-2.29,7.38-6.17,7.38-11.64,0-2.84-.88-5.19-2.62-7.05-1.75-1.85-4.97-3.61-9.67-5.24-4.7-1.64-11.53-3.55-20.49-5.74-11.14-2.84-21.2-5.68-30.16-8.52-8.96-2.84-16.61-6.23-22.94-10.16-6.34-3.93-11.14-8.79-14.42-14.59-3.28-5.79-4.92-12.95-4.92-21.47,0-12.02,3.22-22.23,9.67-30.65,6.44-8.41,15.35-14.86,26.71-19.34,11.36-4.48,24.47-6.72,39.33-6.72,13.33,0,25.78,2.08,37.37,6.23,11.58,4.15,20.7,10.93,27.37,20.32,6.66,9.4,9.12,21.85,7.38,37.37l-45.23,4.26c.66-6.34-.22-11.74-2.62-16.23-2.41-4.48-5.9-7.87-10.49-10.16s-10.16-3.44-16.72-3.44c-7.43,0-13.17,1.37-17.21,4.1-4.05,2.73-6.06,6.18-6.06,10.33,0,3.28,1.25,6.06,3.77,8.36,2.51,2.29,6.44,4.26,11.8,5.9,5.35,1.64,12.29,3.44,20.81,5.41,7.43,1.53,15.19,3.5,23.27,5.9,8.08,2.41,15.62,5.63,22.62,9.67,6.99,4.05,12.67,9.34,17.04,15.9,4.37,6.56,6.56,14.86,6.56,24.91,0,10.71-2.95,20.11-8.85,28.19-5.9,8.09-14.53,14.31-25.89,18.68-11.36,4.37-25.35,6.56-41.96,6.56Z"/>
    </g>
  </g>
</svg>