<svg width="448" height="448" viewBox="0 0 448 448" fill="none" xmlns="http://www.w3.org/2000/svg">
<circle cx="224" cy="224" r="224" fill="black"/>
<path d="M213.6 332.4V116H266.7V208.4C277.2 204.9 286.4 199.9 294.4 193.5C302.4 187.1 309.2 179.7 314.9 171.4C320.6 163.1 325.3 154.2 329 144.7C332.7 135.2 335.6 125.6 337.5 116H397.2C394.6 128.5 390.8 140.2 385.9 151.2C381 162.2 374.8 172.3 367.4 181.5C360 190.7 351.3 198.8 341.5 205.9C331.7 213 320.5 218.8 308.1 223.4V226C321.4 224.9 332.5 225.7 341.2 228.5C349.9 231.2 357 235.2 362.5 240.5C368 245.7 372.3 251.7 375.5 258.4C378.7 265.1 381.3 271.8 383.5 278.6L400.9 332.4H341.9L329.4 284.2C327.4 276.3 324.6 269.9 321 265C317.4 260.1 312.8 256.5 307.1 254.4C301.4 252.2 294.2 251.1 285.5 251.1H266.8V332.4H213.6Z" fill="white"/>
<path d="M52 332.4V116H105.1V332.3H52V332.4ZM61.2 332.4V287.2H187.4V332.4H61.2Z" fill="white"/>
</svg>
