<?xml version="1.0" encoding="UTF-8"?>
<svg id="Mode_Isolation" data-name="Mode Isolation" xmlns="http://www.w3.org/2000/svg" viewBox="0 0 200.39 165.19">
  <defs>
    <style>
      .cls-1 {
        stroke-width: 3px;
      }

      .cls-1, .cls-2, .cls-3, .cls-4, .cls-5 {
        fill: #fff;
        stroke: #000;
      }

      .cls-1, .cls-2, .cls-5 {
        stroke-linejoin: round;
      }

      .cls-1, .cls-3, .cls-5 {
        fill-rule: evenodd;
      }

      .cls-2 {
        stroke-linecap: square;
      }

      .cls-2, .cls-3, .cls-5 {
        stroke-width: 3px;
      }

      .cls-3 {
        stroke-miterlimit: 1.3;
      }

      .cls-4 {
        stroke-linecap: round;
        stroke-width: 3px;
      }
    </style>
  </defs>
  <path class="cls-4" d="m165.96,145.24l27.96,5.06-34.25-1.39,20.23,6.94-30.83-3.93,10.52,8.14-24.39-6.08-.21,8.54-15.57-7.64-10.93,8.11-5.22-8.45-20.57,6.88,5.64-8.43-28.21,4.98,15.95-7.59-33.08,2.59,24.69-6-34.71-.05,31.02-3.83-32.95-2.69,34.32-1.28-27.96-5.06,34.25,1.39-20.23-6.94,30.83,3.93-10.52-8.14,24.39,6.08.21-8.54,15.57,7.64,10.93-8.11,5.22,8.45,20.57-6.88-5.64,8.43,28.21-4.98-15.95,7.59,33.08-2.59-24.69,6,34.71.05-31.02,3.83,32.95,2.69-34.32,1.28Z"/>
  <path class="cls-4" d="m62.93,1.51c-.75.01-1.5.08-2.25.12-12.21.82-23.71,6.24-25.69,12.12-1.97,5.88,6.32,9.98,18.53,9.16h.03c12.2-.83,23.65-6.28,25.62-12.16,1.85-5.52-5.29-9.46-16.25-9.25Zm1.41,4.34c6.64.01,10.72,1.81,9.59,4.56-1.37,3.35-9.97,6.86-19.25,7.84h-.03c-9.29.98-15.72-.93-14.34-4.28,1.37-3.36,10.03-6.86,19.31-7.84.57-.06,1.15-.12,1.72-.16,1.04-.07,2.05-.13,3-.12Z"/>
  <g>
    <path class="cls-1" d="m85.18,41.13c-1.26,1.11-2.69,1.87-4.23,2.42-1.84,2.59-6.75,6.76-11.55,2.81-2.03-2.64-3.42-1.91-5.15-1.37-2.87,1.75-4.25-.31-4.99-1.33-1.31-1.6,4.1-1.28,4.65-2.65l-4.71.13c-2.43-.37-1.84-1.84-1.21-3.32.21-3.97,13.08-11.88,17.52-12.69.31-2.16,1.86-2.57,7.25-2.24.28-2.01,4.1-3.53,5.2.17l1.5.85c2.74-2.13,4.87-.04,4.49,2.46,3.85,2.09,6.73,2.25,10.25,1.17,3.38-.43,4.22.94,1.28,4.59-2.32,2.72-3.21,2.72-6.41,2.56-.26,2.6-3.21-.28-5.77-1.5l6.84,3.74c7.03,3.03,4.71,4.33.64,6.62-3.87,2.62-11.97-4.56-11.86-6.09,1.84,3.42,3.8,4.06,8.66,6.51,2.67,2.53,2.24,4.45-.44,5.66l.11.96c2.13,1.1,2,3.34-.11,4.7,1.39.73,3.01,1.82,1.5,4.27l.43.53c3.24-1.75,4.79-.38,5.77,1.82h.64c1.71-1.46,3.31-1.77,5.55-.21h2.14c1.5-1.71,3.13-1.71,4.91,0,1.67-1.78,3.47-2.91,5.98-.75h1.71c2.21-2.25,4.27-2.21,6.19.11h.85c1.16-3.01,5.29-1.38,5.77.43l.85.21c1.46-2.2,5.8-.99,5.13,1.71,2.16-1.69,5.21-.76,4.91,2.03l.43.43c1.02-.62,4.36-.25,3.85,3.1.6.44,1.29.75,1.07,2.56l.75.53c1.67-1.32,3.35-1.96,5.02.11l1.71.96c2.2,0,3.97.57,3.63,3.95l.64,1.6c2.14,1.28,2.56,2.71,1.28,4.27l-.11,1.5c2.22,1.44,2.15,3.38.96,5.11l.71,1.41c5.3-1.44,5.45,3.76,2.8,5.61,2.5,3.8-.89,6.14-3.88,4.3-3.79,2.32-4.69.08-5.13-2.47-2.42-.49-3.24-1.44-2.85-4.54-.76-1.04-1.5-1.47-.95-4.4.68-6.26,1.12-10.97-5.45-10.03-.38,1.46,2.97,2.39.21,5.34l-.11,1.6c.41,1.35,1.23,2.19-.75,4.06l-.11,1.5c.92,1.1,1.74,2.25-.96,5.02l-.21,1.17c1.03,1.14,1.07,3.03-1.07,4.38v1.39c1.16,1.42,1.55,2.89-.96,4.59l-.11,4.7c3.27,3.35,4.7.71,3.63,10.47-.06,3.5.22,6.83.43,10.04-.03,1.97.61,3.85-1.28,6.09-.77.63-1.04,1.08-.85,2.99.11.96.71,1.98-1.92,3.31-5.08,1.48-12.9-.73-7.26-6.09,4.18-3.79,5.19-14.65.32-21.68-3.66-.31-4.48-2.73-3.52-5.77-2.67.08-4.34-1.23-4.17-5.13l-.96-1.17c-2.35,3.3-7.09,5.72-4.27,13.03,1.22,1.43,1.93,2.96-1.07,5.23-3.69,5.44-5.42,10.51-5.98,15.38.85,3.31-1.55,2.47-3.42,2.99-.89,2.36-5.77.98-8.65-2.14-1.27-4.81,1.31-5.08,2.99-6.41,8.3-7.69,9.21-14,7.9-18.69-3.52-1.69-2.05-3.55-1.6-4.59l-.75-1.28c-1.64.15-4.97-1.51-3.31-6.19l-.85-2.14c-1.62,1.83-3.51,2.36-5.98.21h-2.14c-2.57,1.99-4.89,1.14-6.19-.64l-1.92.64c1.47,1.27,2.57,2.79.21,4.91.18.8.37,1.59,0,2.67.13,3.11-1.78,4.01-3.63,3.74-1.47,1.37-1.08,5.19-1.28,8.65.43,1.02.61,2.16-.64,3.74-1.44,6.74,4.19,8.13,2.03,14.1-1.37,3.03.6,3.34-2.16,5.74-2.22,2.31-7.2,2.03-10.12-.61,2.3-6.47,5.46-12.29,3.31-18.8-1.45-2.64-1.21-5.06-.96-8.76-.04-4.3-3.38-2.96-3.42-8.33-.04-1.85-.91-3.86-2.37-6l.77-1.8c-.96,2.44-4.31,5.86-6.19,2.24-6.51.42-17.62,9.69-3.74,20.51,2.38,1.02,2.64,2.97.21,3.42-.17,4.25-1.87,6.07-3.42,8.12-1.5.78-2.28,0-2.35-2.35-.46-3.45-2.88-1.69-4.06-7.26-.88-7.98-2.19-7.41-2.99-12.39-.13-4.89-.67-9.09,2.78-13.35,4.03-3.16,9.4-5.19,10.36-10.68.02.1,1.42-1.9,2.24,2.46-.95-2.69,1.9-3.35-.85-4.27-1.65.12-2.62-2.8-.32-4.38l-.11-1.6c-3.87-.81-2.84-4.26-.96-5.23v-.64c-3.81-1.37-2.46-4.67-.43-5.55v-.85c-2.24-1.7-1.8-3.77-.11-4.91v-1.07c-1.96-1.45-1.02-4.6.85-4.59l.21-1.28c-1.99-2.55-.33-4.24,1.5-4.91.67-1.22.46-1.67,1.56-4.31,2.28-.55,4.24-2.04,5.95-4.3,1.11-.66,2.91-1.4,4.23-2.57h0Z"/>
    <path class="cls-1" d="m75.46,24.97c.33,3.62,2.27,4.26,4.27,4.81v2.99l1.92,1.07c-2.46,2.23-2.3,3.86-1.07,5.23"/>
    <path class="cls-1" d="m76.85,32.98c-3.58-.06-5.48-2.77-7.69-.11"/>
    <path class="cls-1" d="m71.51,31.81c-.38,1.73,1.33,4.5,3.63.85"/>
    <path class="cls-1" d="m62.22,36.83c-.39.64-1.21.86-2.46.64l.32-.21"/>
    <path class="cls-1" d="m77.07,96.64c.38-5.28-3.07-3.06-3.52-5.02"/>
    <path class="cls-1" d="m114.88,98.78c1.64,1.72,3.88,2.16,6.94,1.92,3.56-.79,3.38,4,7.58,2.88,1.8-.15,3.39.44,4.91,2.56"/>
    <path class="cls-1" d="m71.08,127.29c4.18,1.47,4.23,5.63,3.74,10.79-2,4.16-5.5.28-7.37-1.17l-.11-1.6c2.52-2.51,3.49-5.22,3.74-8.01h0Z"/>
    <path class="cls-1" d="m83.69,144.92c-.79,1.78-3.31,3.26-1.28,5.55,3.45,1.69,6.91,1.65,10.36.21,3.06-1.99,2.3-3.74.85-5.45-4.43,3.06-7.28,1.34-9.93-.32Z"/>
    <path class="cls-1" d="m110.92,140.97c-2.75,3.47-5.16,9.57,1.71,8.87,7.58-1.5,8.01-4.25,8.01-7.16l-1.17.11c-.93,2.77-5.7.52-8.54-1.82Z"/>
    <path class="cls-1" d="m140.94,144.28c-3.66,3.68-4.85,6.53,0,7.37,1.78-.16,12.95.45,8.54-5.34-4.04.51-7.07.02-8.54-2.03Z"/>
  </g>
  <g>
    <path class="cls-3" d="m115.52,45.13L4.61,151.75l-3.53-3.67L112.1,41.35l3.42,3.78Z"/>
    <g>
      <path class="cls-2" d="m126.39,34.69l-3.55-3.69-10.79,10.37,3.55,3.69,10.79-10.37Z"/>
      <path class="cls-2" d="m115.31,33c-2.47,2.37-2.55,6.3-.17,8.77s6.3,2.55,8.77.17,2.55-6.3.17-8.77c-2.37-2.47-6.3-2.55-8.77-.17Z"/>
    </g>
    <path class="cls-3" d="m124.35,29.4s7.86-7.22,15.14-14.55c5.45-5.5,18.59-7.05,26.92,1.33,7.53,7.46,8.09,27.25-9.22,29.92-7.25,1.12-16.7-5.38-15.45-16.21.68-3.89,5.14-8.61,6.99-9.03,3.27-1.82,10.52-3.53,14.77,5.1.56,2.01.9,3.6.79,4.6l-1.17.34c.72-5.84-5.55-10.66-10.34-9.73.04.07-4.86.09-8.58,7.19-1.54,2.94-.32,6.11.63,8.77,2.61,4.24,6.19,6.83,10.07,6.79,5.9-.07,11.99-3.83,13.48-10.05,1.06-4.44-.98-9.16-2.11-11.68-3.31-7.38-14.96-11.24-21.83-4.89-6.02,5.57-16.41,15.87-16.41,15.87l-3.68-3.78Z"/>
    <g>
      <path class="cls-3" d="m166.81,27.15c.82,1.51-3.54,4.33-5.57,4.76-1.27.26-2.88,1.6-4.49,3.56-1.78,1.24-2.54.77-3.35.38-.05-.72.35-1.45-.76-2.21-1.27-.87-2.46.14-2.78,1.14-.22.68.21,1.64,1.35,2.08l-3.13,3.78.38.34,2.81-2.75-.33,1.3-2.18,1.82,3.24-.94.72-2.49c4.09.89,7.32.52,9.97-.69l3.51,1.04.37-.35-3.11-1.48c3.74-3.15,4.89-6.25,3.35-9.28Z"/>
      <g>
        <path class="cls-5" d="m146.26,22.57c.83-1.29,1.61-2.62,1.73-4.5.44.97.85,1.94.64,2.82l-2.37,1.68Z"/>
        <path class="cls-5" d="m170.24,22.21c1.14-.73,2.28-.02,3.53.04-2.01-.81-3.76-2.08-5.38-3.56l1.85,3.51Z"/>
        <path class="cls-5" d="m152.42,26.25c.31-.97-.04-2.41.98-2.9,1.12-.55,2.11-1.09,2.99-1.89-1.22-.25-2.33-.6-4.2-.22-.72,2.02-.11,3.46.24,5.01Z"/>
        <path class="cls-5" d="m149.44,29.4c-.52-.88-1.83-1.56-1.53-2.65.33-1.21.57-2.31.56-3.49-.99.75-1.99,1.35-2.94,3,1.04,1.88,2.52,2.37,3.92,3.13Z"/>
        <path class="cls-5" d="m149.34,33.95c-1.02-.07-2.33.61-3.05-.25-.8-.96-1.56-1.79-2.55-2.45.05,1.24-.03,2.4.79,4.13,2.14.22,3.38-.72,4.81-1.42Z"/>
      </g>
    </g>
    <g>
      <g>
        <path class="cls-2" d="m129.14,34.83l-6.21-6.46-.56.54,6.21,6.46.56-.54Z"/>
        <path class="cls-2" d="m127.69,34.45l-4.74-4.93-.8.77,4.74,4.93.8-.77Z"/>
      </g>
      <g>
        <path class="cls-2" d="m116.32,47l-6.21-6.46.56-.54,6.21,6.46-.56.54Z"/>
        <path class="cls-2" d="m115.99,45.54l-4.74-4.93.8-.77,4.74,4.93-.8.77Z"/>
      </g>
    </g>
  </g>
</svg>