<svg width="448" height="448" viewBox="0 0 448 448" fill="none" xmlns="http://www.w3.org/2000/svg">
<circle cx="224" cy="224" r="224" fill="black"/>
<path d="M214 304V144H254.541V212.318C262.557 209.73 269.581 206.033 275.689 201.301C281.797 196.569 286.989 191.098 291.341 184.961C295.692 178.824 299.281 172.244 302.106 165.22C304.931 158.196 307.145 151.098 308.595 144H354.175C352.19 153.242 349.289 161.893 345.548 170.026C341.807 178.159 337.073 185.627 331.423 192.429C325.774 199.231 319.131 205.22 311.649 210.469C304.167 215.719 295.616 220.007 286.149 223.408V225.331C296.303 224.518 304.778 225.109 311.42 227.179C318.062 229.176 323.483 232.133 327.682 236.052C331.881 239.896 335.164 244.333 337.608 249.287C340.051 254.24 342.036 259.194 343.715 264.222L357 304H311.955L302.411 268.362C300.884 262.521 298.746 257.789 295.998 254.166C293.249 250.543 289.737 247.882 285.385 246.329C281.034 244.702 275.537 243.889 268.894 243.889H254.617V304H214Z" fill="white"/>
<path d="M91 304V144H131.394V303.926H91V304ZM97.9985 304V270.58H194V304H97.9985Z" fill="white"/>
</svg>
