<svg width="349" height="217" viewBox="0 0 349 217" fill="none" xmlns="http://www.w3.org/2000/svg">
<path d="M161.6 216.4V0H214.7V92.4C225.2 88.9 234.4 83.9 242.4 77.5C250.4 71.1 257.2 63.7 262.9 55.4C268.6 47.1 273.3 38.2 277 28.7C280.7 19.2 283.6 9.6 285.5 0H345.2C342.6 12.5 338.8 24.2 333.9 35.2C329 46.2 322.8 56.3 315.4 65.5C308 74.7 299.3 82.8 289.5 89.9C279.7 97 268.5 102.8 256.1 107.4V110C269.4 108.9 280.5 109.7 289.2 112.5C297.9 115.2 305 119.2 310.5 124.5C316 129.7 320.3 135.7 323.5 142.4C326.7 149.1 329.3 155.8 331.5 162.6L348.9 216.4H289.9L277.4 168.2C275.4 160.3 272.6 153.9 269 149C265.4 144.1 260.8 140.5 255.1 138.4C249.4 136.2 242.2 135.1 233.5 135.1H214.8V216.4H161.6Z" fill="white"/>
<path d="M0 216.4V0H53.1V216.3H0V216.4ZM9.2 216.4V171.2H135.4V216.4H9.2Z" fill="white"/>
</svg>
